<svg width="42" height="42" viewBox="0 0 42 42" fill="none" xmlns="http://www.w3.org/2000/svg">
<path d="M18.8999 4.2C17.7401 4.2 16.7999 5.1402 16.7999 6.3C16.7999 7.45979 17.7401 8.4 18.8999 8.4H23.0999C24.2597 8.4 25.1999 7.45979 25.1999 6.3C25.1999 5.1402 24.2597 4.2 23.0999 4.2H18.8999Z" fill="#111827"/>
<path fill-rule="evenodd" clip-rule="evenodd" d="M8.3999 10.5C8.3999 8.1804 10.2803 6.3 12.5999 6.3C12.5999 9.77939 15.4205 12.6 18.8999 12.6H23.0999C26.5793 12.6 29.3999 9.77939 29.3999 6.3C31.7195 6.3 33.5999 8.1804 33.5999 10.5V33.6C33.5999 35.9196 31.7195 37.8 29.3999 37.8H12.5999C10.2803 37.8 8.3999 35.9196 8.3999 33.6V10.5ZM14.6999 18.9C13.5401 18.9 12.5999 19.8402 12.5999 21C12.5999 22.1598 13.5401 23.1 14.6999 23.1H14.7209C15.8807 23.1 16.8209 22.1598 16.8209 21C16.8209 19.8402 15.8807 18.9 14.7209 18.9H14.6999ZM20.9999 18.9C19.8401 18.9 18.8999 19.8402 18.8999 21C18.8999 22.1598 19.8401 23.1 20.9999 23.1H27.2999C28.4597 23.1 29.3999 22.1598 29.3999 21C29.3999 19.8402 28.4597 18.9 27.2999 18.9H20.9999ZM14.6999 27.3C13.5401 27.3 12.5999 28.2402 12.5999 29.4C12.5999 30.5598 13.5401 31.5 14.6999 31.5H14.7209C15.8807 31.5 16.8209 30.5598 16.8209 29.4C16.8209 28.2402 15.8807 27.3 14.7209 27.3H14.6999ZM20.9999 27.3C19.8401 27.3 18.8999 28.2402 18.8999 29.4C18.8999 30.5598 19.8401 31.5 20.9999 31.5H27.2999C28.4597 31.5 29.3999 30.5598 29.3999 29.4C29.3999 28.2402 28.4597 27.3 27.2999 27.3H20.9999Z" fill="#111827"/>
</svg>
