<svg width="554" height="660" viewBox="0 0 554 660" fill="none" xmlns="http://www.w3.org/2000/svg">
<g clip-path="url(#clip0_98_923)">
<path d="M536.094 243.258H17.4312C12.8097 243.253 8.37914 241.375 5.11131 238.038C1.84348 234.7 0.00527521 230.175 -6.10352e-05 225.454V17.8041C0.00527521 13.0838 1.84348 8.55843 5.11131 5.22069C8.37914 1.88295 12.8097 0.00541989 17.4312 -3.05176e-05H536.094C540.716 0.00541989 545.146 1.88295 548.414 5.22069C551.682 8.55843 553.52 13.0838 553.525 17.8041V225.454C553.52 230.175 551.682 234.7 548.414 238.038C545.146 241.375 540.716 243.253 536.094 243.258V243.258Z" fill="#F2F2F2"/>
<path d="M415.13 231.903H99.761C76.2601 231.876 53.7293 222.329 37.1117 205.356C20.494 188.382 11.1466 165.37 11.1201 141.366V101.902C11.1465 77.8986 20.4939 54.8857 37.1116 37.9124C53.7292 20.9392 76.26 11.3916 99.761 11.3644H453.767C477.268 11.3916 499.799 20.9392 516.417 37.9124C533.034 54.8857 542.382 77.8986 542.408 101.902C542.37 136.369 528.948 169.412 505.087 193.784C481.226 218.155 448.875 231.864 415.13 231.903Z" fill="white"/>
<path d="M333.778 70.8078H125.315C124.123 70.8078 122.979 70.324 122.136 69.4629C121.293 68.6018 120.819 67.4339 120.819 66.2161C120.819 64.9983 121.293 63.8304 122.136 62.9693C122.979 62.1082 124.123 61.6244 125.315 61.6244H333.778C334.97 61.6244 336.114 62.1082 336.957 62.9693C337.8 63.8304 338.273 64.9983 338.273 66.2161C338.273 67.4339 337.8 68.6018 336.957 69.4629C336.114 70.324 334.97 70.8078 333.778 70.8078V70.8078Z" fill="#E6E6E6"/>
<path d="M439.305 119.798H125.315C124.123 119.798 122.979 119.314 122.136 118.453C121.293 117.592 120.819 116.424 120.819 115.206C120.819 113.989 121.293 112.821 122.136 111.96C122.979 111.098 124.123 110.615 125.315 110.615H439.305C440.498 110.615 441.641 111.098 442.484 111.96C443.327 112.821 443.801 113.989 443.801 115.206C443.801 116.424 443.327 117.592 442.484 118.453C441.641 119.314 440.498 119.798 439.305 119.798V119.798Z" fill="#E6E6E6"/>
<path d="M439.305 168.788H125.315C124.123 168.788 122.979 168.305 122.136 167.444C121.293 166.582 120.819 165.415 120.819 164.197C120.819 162.979 121.293 161.811 122.136 160.95C122.979 160.089 124.123 159.605 125.315 159.605H439.305C440.498 159.605 441.641 160.089 442.484 160.95C443.327 161.811 443.801 162.979 443.801 164.197C443.801 165.415 443.327 166.582 442.484 167.444C441.641 168.305 440.498 168.788 439.305 168.788V168.788Z" fill="#E6E6E6"/>
<path d="M439.305 168.788H125.315C124.123 168.788 122.979 168.305 122.136 167.444C121.293 166.582 120.819 165.415 120.819 164.197C120.819 162.979 121.293 161.811 122.136 160.95C122.979 160.089 124.123 159.605 125.315 159.605H439.305C440.498 159.605 441.641 160.089 442.484 160.95C443.327 161.811 443.801 162.979 443.801 164.197C443.801 165.415 443.327 166.582 442.484 167.444C441.641 168.305 440.498 168.788 439.305 168.788V168.788Z" fill="#E6E6E6"/>
<path d="M311.78 125.421C311.83 126.804 312.176 128.159 312.794 129.391C313.412 130.622 314.287 131.701 315.358 132.549C316.428 133.398 317.667 133.997 318.989 134.304C320.31 134.61 321.681 134.617 323.006 134.324L340.15 163.051L347.446 147.236L330.047 122.381C329.418 120.142 328.005 118.216 326.078 116.968C324.151 115.721 321.843 115.239 319.592 115.614C317.34 115.988 315.301 117.194 313.861 119.001C312.422 120.809 311.681 123.093 311.78 125.421H311.78Z" fill="#FFB6B6"/>
<path d="M440.435 207.75L381.353 175.017L362.718 157.159C362.718 157.159 354.616 154.944 357.598 152.253C360.58 149.562 352.082 146.968 352.082 146.968L342.078 137.381L327.863 147.655L331.977 154.168C331.977 154.168 331.694 164.952 337.477 162.877C343.261 160.803 341.816 169.746 341.816 169.746L376.337 224.404L440.435 207.75Z" fill="#3F3D56"/>
<path d="M266.032 176.911C297.904 176.911 323.741 150.521 323.741 117.967C323.741 85.4135 297.904 59.0235 266.032 59.0235C234.16 59.0235 208.323 85.4135 208.323 117.967C208.323 150.521 234.16 176.911 266.032 176.911Z" fill="#8B5CF6"/>
<path d="M440.618 637.083H428.619L422.909 589.81H440.618V637.083Z" fill="#FFB6B6"/>
<path d="M446.952 658.318H438.347L436.811 650.02L432.877 658.318H410.054C408.96 658.318 407.895 657.961 407.013 657.299C406.132 656.637 405.481 655.704 405.156 654.637C404.83 653.571 404.847 652.426 405.204 651.369C405.56 650.313 406.238 649.401 407.139 648.766L425.364 635.909V627.52L444.535 628.689L446.952 658.318Z" fill="#2F2E41"/>
<path d="M344.649 637.083H332.649L326.939 589.81H344.649V637.083Z" fill="#FFB6B6"/>
<path d="M350.982 658.318H342.377L340.841 650.02L336.907 658.318H314.084C312.99 658.318 311.925 657.961 311.044 657.299C310.163 656.637 309.512 655.704 309.186 654.637C308.861 653.571 308.877 652.426 309.234 651.369C309.591 650.313 310.269 649.401 311.169 648.766L329.395 635.909V627.52L348.565 628.689L350.982 658.318Z" fill="#2F2E41"/>
<path d="M427.886 279.563H367.323V349.987H427.886V279.563Z" fill="#FFB6B6"/>
<path d="M368.721 314.299L358.471 326.671L340.768 364.738L296.161 473.144L286.727 496.07L294.346 536.598C294.346 536.598 295.579 565.151 295.579 569.825C295.579 579.342 303.372 584.615 303.372 584.615L309.089 615.03L364.528 612.651C364.528 612.651 362.593 579.125 350.982 570.668C339.371 562.212 334.033 518.138 334.033 518.138L327.724 498.584L389.219 424.128L389.616 450.155L389.808 462.752C389.808 462.752 380.802 544.685 391.3 560.586C401.798 576.487 391.514 574.616 391.514 574.616L392.014 607.416L457.702 607.892L443.21 513.459C443.21 513.459 435.852 507.525 439.789 501.56C443.726 495.594 435.973 488.288 435.973 488.288L439.45 414.567C439.45 414.567 435.6 401.833 440.129 400.178C444.658 398.523 440.724 387.573 440.724 387.573L441.397 373.304L427.886 329.05L368.721 314.299Z" fill="#2F2E41"/>
<path d="M428.818 279.563L435.34 259.578L439.999 252.916L441.862 233.883C441.862 182.492 430.64 191.05 430.64 191.05L424.159 172.975L394.344 172.023L375.243 190.581L359.403 196.291L353.2 229.21L364.528 264.336L367.323 283.37C361.991 293.424 362.442 288.668 366.857 296.218L419.501 310.969C438.136 317.63 438.136 300.5 434.399 296.218C430.662 291.935 428.818 279.563 428.818 279.563Z" fill="#3F3D56"/>
<path d="M405.4 165.635C420.665 165.635 433.04 152.995 433.04 137.403C433.04 121.811 420.665 109.172 405.4 109.172C390.134 109.172 377.759 121.811 377.759 137.403C377.759 152.995 390.134 165.635 405.4 165.635Z" fill="#FFB6B6"/>
<path d="M442.3 175.088C442.561 175.537 442.719 176.04 442.762 176.56C442.806 177.079 442.734 177.602 442.552 178.09C442.371 178.578 442.083 179.017 441.712 179.375C441.341 179.734 440.896 180.002 440.409 180.16C436.701 181.417 434.418 185.081 431.753 188.012C429.098 190.933 424.821 193.36 421.429 191.371C418.047 189.392 417.814 184.338 414.982 181.597C412.224 178.933 407.64 179.256 404.397 181.283L404.3 181.344C403.74 181.717 403.086 181.914 402.418 181.911C401.75 181.908 401.097 181.705 400.541 181.327C399.984 180.949 399.549 180.413 399.288 179.785C399.026 179.156 398.951 178.464 399.071 177.793C400.207 171.621 401.343 165.451 402.478 159.28C399.496 166.618 395.166 173.305 389.722 178.98C388.223 180.748 386.322 182.113 384.187 182.958C382.249 183.586 380.367 181.54 378.485 181.911C383.163 177.734 398.89 150.953 396.077 133.052C392.769 133.433 389.461 133.814 386.154 134.194C385.795 132.595 385.03 131.121 383.936 129.921C384.07 131.477 383.876 133.045 383.368 134.518C381.989 134.68 380.6 134.832 379.221 134.994C377.302 135.213 375.215 135.403 373.566 134.375C370.817 132.662 370.733 128.608 371.516 125.41C373.808 116.112 380.759 108.337 389.265 104.264C397.772 100.2 400.288 109.251 409.251 106.358C426.955 100.648 440.521 110.412 445.301 128.532C449.316 143.73 446.4 159.861 442.3 175.088Z" fill="#2F2E41"/>
<path d="M518.822 658.932H484.976L484.831 658.663C484.398 657.861 483.98 657.012 483.59 656.139C480.104 648.516 478.63 639.797 477.33 632.104L476.351 626.306C476.232 625.604 476.322 624.881 476.607 624.231C476.893 623.581 477.362 623.033 477.955 622.657C478.548 622.281 479.237 622.094 479.934 622.12C480.631 622.146 481.305 622.384 481.869 622.803C487.012 626.626 492.158 630.445 497.305 634.261C499.254 635.709 501.48 637.386 503.612 639.198C503.818 638.177 504.033 637.154 504.248 636.145C504.396 635.448 504.745 634.812 505.249 634.319C505.753 633.826 506.39 633.497 507.078 633.376C507.766 633.254 508.473 633.345 509.11 633.637C509.747 633.929 510.285 634.408 510.653 635.014L514.613 641.512C517.501 646.257 520.051 650.934 519.531 655.977C519.534 656.038 519.529 656.1 519.518 656.16C519.414 656.989 519.221 657.803 518.943 658.588L518.822 658.932Z" fill="#F0F0F0"/>
<path d="M552.792 659.68L231.176 660C230.855 659.998 230.548 659.867 230.321 659.635C230.095 659.402 229.968 659.088 229.968 658.76C229.968 658.432 230.095 658.117 230.321 657.885C230.548 657.652 230.855 657.521 231.176 657.519L552.792 657.199C553.113 657.201 553.42 657.332 553.647 657.565C553.873 657.797 554 658.112 554 658.44C554 658.767 553.873 659.082 553.647 659.314C553.42 659.547 553.113 659.678 552.792 659.68V659.68Z" fill="#CACACA"/>
<path d="M260.786 197.301L225.41 166.787C224.2 165.741 223.446 164.249 223.313 162.636C223.18 161.024 223.679 159.423 224.7 158.186L231.211 150.311C232.234 149.076 233.696 148.306 235.274 148.17C236.853 148.034 238.42 148.543 239.631 149.586L275.008 180.1C276.217 181.146 276.971 182.638 277.104 184.251C277.237 185.863 276.738 187.463 275.717 188.701L269.206 196.576C268.183 197.811 266.722 198.581 265.143 198.717C263.564 198.853 261.997 198.344 260.786 197.301V197.301Z" fill="#3F3D56"/>
<path d="M227.266 158.821C226.716 159.488 226.447 160.35 226.519 161.219C226.591 162.088 226.997 162.892 227.648 163.456L263.025 193.97C263.678 194.532 264.522 194.806 265.373 194.733C266.223 194.66 267.011 194.245 267.562 193.579L274.074 185.704C274.624 185.037 274.892 184.175 274.82 183.306C274.749 182.437 274.343 181.633 273.691 181.07L238.315 150.555C237.662 149.993 236.817 149.719 235.967 149.792C235.116 149.866 234.328 150.28 233.777 150.946L227.266 158.821Z" fill="white"/>
<path d="M248.034 170.683C247.911 170.859 247.75 171.003 247.563 171.103C247.377 171.204 247.17 171.259 246.959 171.264L241.4 171.395C241.222 171.399 241.044 171.367 240.878 171.301C240.711 171.235 240.559 171.136 240.43 171.01C240.3 170.884 240.197 170.733 240.125 170.567C240.053 170.4 240.013 170.22 240.009 170.038C240.005 169.855 240.036 169.674 240.101 169.504C240.165 169.333 240.262 169.178 240.385 169.046C240.509 168.914 240.656 168.808 240.82 168.735C240.983 168.661 241.159 168.621 241.338 168.617L244.974 168.531L241.393 158.88C241.266 158.536 241.278 158.154 241.427 157.819C241.575 157.484 241.847 157.222 242.184 157.092C242.521 156.961 242.895 156.973 243.223 157.123C243.552 157.274 243.808 157.552 243.937 157.895L248.199 169.383C248.276 169.591 248.304 169.814 248.279 170.035C248.254 170.256 248.177 170.467 248.056 170.652L248.034 170.683Z" fill="#6C63FF"/>
<path d="M248.747 173.109C250.088 173.31 251.369 173.809 252.5 174.57C253.632 175.332 254.586 176.338 255.296 177.517C256.006 178.696 256.454 180.019 256.608 181.394C256.763 182.769 256.621 184.162 256.191 185.475L282.286 206.005L266.101 211.694L243.802 191.326C241.691 190.443 239.97 188.8 238.966 186.708C237.961 184.616 237.743 182.22 238.353 179.974C238.962 177.729 240.357 175.79 242.273 174.524C244.188 173.259 246.492 172.755 248.747 173.109L248.747 173.109Z" fill="#FFB6B6"/>
<path d="M384.599 183.26L317.79 225.216C317.79 225.216 290.853 215.036 296.117 210.323C301.381 205.611 284.623 202.425 284.623 202.425L266.109 189.703L255.366 202.455C255.366 202.455 257.324 223.169 260.654 219.582C263.985 215.996 268.963 225.794 268.963 225.794C268.963 225.794 270.434 236.734 279.916 233.981C289.397 231.227 314.837 260.085 314.837 260.085L397.06 228.763L384.599 183.26Z" fill="#3F3D56"/>
<path d="M264.002 141.612C263.228 141.612 262.464 141.428 261.771 141.074C261.079 140.72 260.476 140.206 260.012 139.573L247.776 122.909C247.382 122.374 247.096 121.765 246.934 121.116C246.771 120.468 246.735 119.793 246.828 119.131C246.921 118.469 247.14 117.831 247.474 117.255C247.808 116.68 248.249 116.177 248.774 115.775C249.832 114.964 251.163 114.616 252.472 114.807C253.121 114.902 253.745 115.126 254.309 115.467C254.872 115.808 255.365 116.259 255.758 116.795L263.763 127.696L284.324 96.1957C285.058 95.0712 286.199 94.2905 287.496 94.0255C288.794 93.7604 290.141 94.0327 291.242 94.7824C292.343 95.5321 293.108 96.6978 293.367 98.023C293.627 99.3483 293.36 100.725 292.626 101.849L268.154 139.343C267.711 140.021 267.116 140.58 266.418 140.975C265.72 141.37 264.939 141.587 264.141 141.61C264.095 141.611 264.049 141.612 264.002 141.612Z" fill="white"/>
</g>
<defs>
<clipPath id="clip0_98_923">
<rect width="554" height="660" fill="white"/>
</clipPath>
</defs>
</svg>
