<svg width="32" height="28" viewBox="0 0 32 28" fill="none" xmlns="http://www.w3.org/2000/svg">
<path fill-rule="evenodd" clip-rule="evenodd" d="M20.3567 26.7435C19.6147 26.0015 19.6147 24.7985 20.3567 24.0565L24.7132 19.7L14.1002 19.7C6.75481 19.7 0.800195 13.7454 0.800196 6.4L0.800196 2.6C0.800196 1.55066 1.65085 0.7 2.7002 0.7C3.74954 0.7 4.6002 1.55066 4.6002 2.6L4.6002 6.4C4.6002 11.6467 8.85349 15.9 14.1002 15.9L24.7132 15.9L20.3567 11.5435C19.6147 10.8015 19.6147 9.59849 20.3567 8.8565C21.0987 8.1145 22.3017 8.1145 23.0437 8.8565L30.6437 16.4565C31.3857 17.1985 31.3857 18.4015 30.6437 19.1435L23.0437 26.7435C22.3017 27.4855 21.0987 27.4855 20.3567 26.7435Z" fill="#111827"/>
</svg>
