<svg width="40" height="40" viewBox="0 0 40 40" fill="none" xmlns="http://www.w3.org/2000/svg">
<path d="M20 18.3333C19.0795 18.3333 18.3333 19.0795 18.3333 20C18.3333 20.9205 19.0795 21.6667 20 21.6667V18.3333ZM25 21.6667C25.9205 21.6667 26.6666 20.9205 26.6666 20C26.6666 19.0795 25.9205 18.3333 25 18.3333V21.6667ZM20 25C19.0795 25 18.3333 25.7462 18.3333 26.6667C18.3333 27.5871 19.0795 28.3333 20 28.3333V25ZM25 28.3333C25.9205 28.3333 26.6666 27.5871 26.6666 26.6667C26.6666 25.7462 25.9205 25 25 25V28.3333ZM15 18.3333C14.0795 18.3333 13.3333 19.0795 13.3333 20C13.3333 20.9205 14.0795 21.6667 15 21.6667V18.3333ZM15.0166 21.6667C15.9371 21.6667 16.6833 20.9205 16.6833 20C16.6833 19.0795 15.9371 18.3333 15.0166 18.3333V21.6667ZM15 25C14.0795 25 13.3333 25.7462 13.3333 26.6667C13.3333 27.5871 14.0795 28.3333 15 28.3333V25ZM15.0166 28.3333C15.9371 28.3333 16.6833 27.5871 16.6833 26.6667C16.6833 25.7462 15.9371 25 15.0166 25V28.3333ZM30 11.6667V31.6667H33.3333V11.6667H30ZM28.3333 33.3333H11.6666V36.6667H28.3333V33.3333ZM9.99998 31.6667V11.6667H6.66665V31.6667H9.99998ZM11.6666 10H15V6.66667H11.6666V10ZM25 10H28.3333V6.66667H25V10ZM11.6666 33.3333C10.7462 33.3333 9.99998 32.5871 9.99998 31.6667H6.66665C6.66665 34.4281 8.90522 36.6667 11.6666 36.6667V33.3333ZM30 31.6667C30 32.5871 29.2538 33.3333 28.3333 33.3333V36.6667C31.0947 36.6667 33.3333 34.4281 33.3333 31.6667H30ZM33.3333 11.6667C33.3333 8.90524 31.0947 6.66667 28.3333 6.66667V10C29.2538 10 30 10.7462 30 11.6667H33.3333ZM9.99998 11.6667C9.99998 10.7462 10.7462 10 11.6666 10V6.66667C8.90522 6.66667 6.66665 8.90524 6.66665 11.6667H9.99998ZM20 21.6667H25V18.3333H20V21.6667ZM20 28.3333H25V25H20V28.3333ZM18.3333 6.66667H21.6666V3.33333H18.3333V6.66667ZM21.6666 10H18.3333V13.3333H21.6666V10ZM18.3333 10C17.4128 10 16.6666 9.25381 16.6666 8.33333H13.3333C13.3333 11.0948 15.5719 13.3333 18.3333 13.3333V10ZM23.3333 8.33333C23.3333 9.25381 22.5871 10 21.6666 10V13.3333C24.4281 13.3333 26.6666 11.0948 26.6666 8.33333H23.3333ZM21.6666 6.66667C22.5871 6.66667 23.3333 7.41286 23.3333 8.33333H26.6666C26.6666 5.57191 24.4281 3.33333 21.6666 3.33333V6.66667ZM18.3333 3.33333C15.5719 3.33333 13.3333 5.57191 13.3333 8.33333H16.6666C16.6666 7.41286 17.4128 6.66667 18.3333 6.66667V3.33333ZM15 21.6667H15.0166V18.3333H15V21.6667ZM15 28.3333H15.0166V25H15V28.3333Z" fill="white"/>
</svg>
