<svg width="38" height="38" viewBox="0 0 38 38" fill="none" xmlns="http://www.w3.org/2000/svg">
<path fill-rule="evenodd" clip-rule="evenodd" d="M14.6433 6.25649C15.3853 6.99849 15.3853 8.2015 14.6433 8.9435L10.2868 13.3L20.8998 13.3C28.2452 13.3 34.1998 19.2546 34.1998 26.6V30.4C34.1998 31.4493 33.3491 32.3 32.2998 32.3C31.2505 32.3 30.3998 31.4493 30.3998 30.4V26.6C30.3998 21.3533 26.1465 17.1 20.8998 17.1H10.2868L14.6433 21.4565C15.3853 22.1985 15.3853 23.4015 14.6433 24.1435C13.9013 24.8855 12.6983 24.8855 11.9563 24.1435L4.3563 16.5435C3.61431 15.8015 3.61431 14.5985 4.3563 13.8565L11.9563 6.25649C12.6983 5.5145 13.9013 5.5145 14.6433 6.25649Z" fill="#111827"/>
</svg>
