<svg width="225" height="66" viewBox="0 0 225 66" fill="none" xmlns="http://www.w3.org/2000/svg">
<g clip-path="url(#clip0_312_4854)">
<path d="M0.198578 53.262C0.463284 52.646 1.19122 51.018 2.3824 48.378C3.57358 45.782 5.1177 42.3941 7.01475 38.214C8.95594 33.99 11.1177 29.216 13.5 23.892C15.9265 18.524 18.4854 12.848 21.1765 6.864C21.3089 6.55599 21.4412 6.16001 21.5736 5.676C21.75 5.148 21.8383 4.64201 21.8383 4.158C21.8383 3.674 21.6838 3.278 21.375 2.97C21.1103 2.618 20.5148 2.442 19.5883 2.442C17.7353 2.442 16.1912 3.08 14.9559 4.356C13.7648 5.588 12.8603 7.128 12.2427 8.976C11.6692 10.824 11.3824 12.65 11.3824 14.454C11.3824 14.894 11.3824 15.268 11.3824 15.576C11.4265 15.884 11.4706 16.192 11.5148 16.5C10.6765 16.5 9.9927 16.214 9.46328 15.642C8.97799 15.026 8.60299 14.3 8.33828 13.464C8.11769 12.584 8.0074 11.792 8.0074 11.088C8.0074 9.636 8.40446 8.25 9.19858 6.93C9.9927 5.61 11.0074 4.422 12.2427 3.366C13.5222 2.31 14.9119 1.496 16.4118 0.923999C17.956 0.308 19.4559 0 20.9118 0C22.3677 0 23.581 0.418 24.5515 1.254C25.5663 2.046 26.3162 3.498 26.8015 5.61C27.3309 7.722 27.5956 10.78 27.5956 14.784C27.5956 17.512 27.4854 20.416 27.2648 23.496C27.0883 26.576 26.8898 29.612 26.6692 32.604C26.4485 35.5961 26.2942 38.324 26.2059 40.788C26.9118 38.104 27.9044 35.244 29.1839 32.208C30.5074 29.172 31.9412 26.158 33.4853 23.166C35.0736 20.13 36.6397 17.292 38.1839 14.652C39.728 12.012 41.1177 9.72399 42.353 7.788C43.5882 5.852 44.4927 4.44401 45.0662 3.564C45.6839 2.684 46.2133 2.024 46.6545 1.584C47.0956 1.1 47.6692 0.858001 48.375 0.858001C48.9927 0.858001 49.6986 1.012 50.4927 1.32C50.1839 2.112 49.7427 3.3 49.1692 4.884C48.6398 6.42401 48.0882 8.316 47.5148 10.56C46.8089 13.244 46.1029 16.302 45.3971 19.734C44.6913 23.122 44.0295 26.576 43.4118 30.096C42.8383 33.616 42.3751 36.938 42.0221 40.062C41.6691 43.142 41.4927 45.738 41.4927 47.85C41.4927 48.818 41.5368 49.566 41.6251 50.094C41.7133 50.622 41.8236 51.084 41.9559 51.48C42.1324 51.92 42.3089 52.514 42.4853 53.262C40.9854 53.262 39.8383 53.02 39.0442 52.536C38.25 52.052 37.7206 51.26 37.4559 50.16C37.1912 49.104 37.0589 47.674 37.0589 45.87C37.0589 40.634 37.7206 35.024 39.0442 29.04C40.4118 23.012 41.9559 16.764 43.6765 10.296C42.3971 11.924 41.0516 13.992 39.6398 16.5C38.2722 18.964 36.8824 21.648 35.4706 24.552C34.103 27.412 32.7795 30.294 31.5 33.198C30.2648 36.058 29.1618 38.72 28.1912 41.184C27.2207 43.648 26.4706 45.694 25.9412 47.322C25.6765 47.41 25.5001 47.476 25.4118 47.52C25.3235 47.564 25.1692 47.586 24.9486 47.586C23.7574 47.586 22.9633 46.882 22.5662 45.474C22.2132 44.066 22.0368 42.086 22.0368 39.534C22.0368 37.73 22.0809 35.5961 22.1692 33.132C22.3015 30.624 22.4339 28.05 22.5662 25.41C22.6986 22.77 22.8088 20.24 22.8971 17.82C23.0295 15.356 23.0956 13.244 23.0956 11.484C23.0956 10.604 23.0735 9.878 23.0295 9.306C23.0295 8.73401 23.0074 8.228 22.9633 7.788C19.4338 15.972 16.478 22.968 14.0956 28.776C11.7133 34.54 9.70593 39.226 8.07358 42.834C6.48534 46.442 5.07357 49.082 3.83828 50.754C2.60299 52.426 1.38975 53.262 0.198578 53.262ZM59.9746 50.622C58.6069 50.622 57.4599 50.16 56.5334 49.236C55.5627 48.356 55.0775 46.992 55.0775 45.144C55.0775 43.56 55.4304 41.866 56.1364 40.062C56.8422 38.214 57.8127 36.41 59.0481 34.65C60.2834 32.846 61.6731 31.218 63.2172 29.766C64.8055 28.27 66.4599 27.082 68.1805 26.202C69.9451 25.322 71.6878 24.882 73.4084 24.882C75.129 24.882 76.5628 25.344 77.7099 26.268C78.8569 27.148 79.4305 28.336 79.4305 29.832C79.4305 30.932 79.1216 31.68 78.504 32.076C77.9304 32.472 77.1584 32.67 76.1878 32.67C76.276 32.318 76.3422 31.944 76.3864 31.548C76.4745 31.108 76.5187 30.712 76.5187 30.36C76.5187 29.348 76.276 28.49 75.7908 27.786C75.3054 27.038 74.4672 26.664 73.2761 26.664C72.0407 26.664 70.7833 27.104 69.504 27.984C68.2245 28.82 66.9893 29.964 65.7981 31.416C64.6069 32.824 63.5481 34.364 62.6217 36.036C61.6952 37.708 60.9672 39.358 60.4378 40.986C59.9084 42.614 59.6437 44.066 59.6437 45.342C59.6437 47.058 60.2393 47.916 61.4305 47.916C62.4451 47.916 63.5481 47.454 64.7393 46.53C65.9305 45.562 67.1436 44.352 68.379 42.9C69.6583 41.404 70.8716 39.864 72.0187 38.28C73.1657 36.696 74.1804 35.244 75.0628 33.924C75.2393 33.66 75.3495 33.528 75.3937 33.528C75.6584 33.572 75.9893 33.66 76.3864 33.792C76.8275 33.924 77.2024 34.1 77.5114 34.32C77.8201 34.54 77.9746 34.826 77.9746 35.178C77.9746 35.574 77.7761 36.124 77.379 36.828C76.9819 37.488 76.5407 38.258 76.0555 39.138C75.5701 40.018 75.129 40.92 74.7319 41.844C74.3349 42.724 74.1364 43.56 74.1364 44.352C74.1364 45.012 74.3128 45.672 74.6658 46.332C75.0186 46.948 75.5922 47.256 76.3864 47.256C77.5775 47.256 79.1437 46.398 81.0849 44.682C83.026 42.922 84.9893 40.304 86.9746 36.828L87.6364 37.488C86.7099 39.864 85.5187 41.954 84.0628 43.758C82.6069 45.562 81.0407 46.97 79.3643 47.982C77.7319 48.994 76.1217 49.5 74.5334 49.5C72.901 49.5 71.6878 49.016 70.8937 48.048C70.1437 47.08 69.7687 46.024 69.7687 44.88C69.7687 44.616 69.7907 44.33 69.8349 44.022C69.879 43.67 69.923 43.318 69.9672 42.966C68.0701 45.518 66.3275 47.432 64.7393 48.708C63.1951 49.984 61.6069 50.622 59.9746 50.622ZM82.974 66C81.8711 66 81.0327 65.67 80.4593 65.01C79.8416 64.394 79.5328 63.602 79.5328 62.634C79.5328 61.006 80.3269 59.224 81.9151 57.288C83.4593 55.352 85.4446 53.702 87.871 52.338C88.4887 51.986 89.1505 51.656 89.8563 51.348C90.5181 51.04 91.2681 50.666 92.1063 50.226C92.9887 48.114 93.8048 45.716 94.5548 43.032C95.3049 40.304 95.9667 37.29 96.5401 33.99C95.8784 35.178 95.2607 36.212 94.6872 37.092C94.1578 37.972 93.7386 38.676 93.4298 39.204L92.8343 38.214C93.5843 36.85 94.2461 35.398 94.8196 33.858C95.4372 32.274 96.0107 30.778 96.5401 29.37C97.1136 27.962 97.6872 26.818 98.2607 25.938C98.8342 25.058 99.4519 24.618 100.114 24.618C100.599 24.618 100.974 24.816 101.239 25.212C101.547 25.564 101.702 26.026 101.702 26.598C101.702 27.082 101.57 28.028 101.305 29.436C101.084 30.8 100.731 32.494 100.246 34.518C99.8049 36.498 99.2534 38.654 98.5916 40.986C97.9298 43.318 97.2019 45.672 96.4078 48.048C97.6872 47.3 98.9666 46.53 100.246 45.738C101.525 44.946 102.805 43.89 104.084 42.57C105.408 41.25 106.687 39.446 107.922 37.158L108.783 37.62C107.68 40.216 106.356 42.284 104.812 43.824C103.312 45.32 101.768 46.508 100.18 47.388C98.5916 48.268 97.1136 49.104 95.746 49.896C94.7755 52.624 93.6284 55.22 92.3048 57.684C91.0254 60.148 89.6137 62.15 88.0695 63.69C86.4813 65.23 84.7828 66 82.974 66ZM82.3784 63.756C83.2608 63.756 84.5401 62.788 86.2166 60.852C87.8489 58.96 89.5254 56.122 91.246 52.338C87.8931 53.966 85.4004 55.66 83.7681 57.42C82.0916 59.18 81.2534 60.764 81.2534 62.172C81.2534 62.744 81.3636 63.14 81.5843 63.36C81.8049 63.624 82.0696 63.756 82.3784 63.756ZM101.172 18.678C100.467 18.678 99.849 18.502 99.3195 18.15C98.7901 17.798 98.5254 17.27 98.5254 16.566C98.5254 15.906 98.768 15.312 99.2534 14.784C99.7828 14.256 100.422 13.838 101.172 13.53C101.923 13.222 102.65 13.068 103.356 13.068C103.974 13.068 104.481 13.222 104.878 13.53C105.32 13.838 105.54 14.3 105.54 14.916C105.54 15.884 105.077 16.764 104.15 17.556C103.268 18.304 102.275 18.678 101.172 18.678ZM120.415 50.424C117.724 50.424 115.694 49.676 114.327 48.18C113.003 46.728 112.341 44.924 112.341 42.768C112.341 40.788 112.827 38.698 113.797 36.498C114.812 34.298 116.135 32.23 117.768 30.294C119.444 28.358 121.275 26.796 123.26 25.608C125.246 24.376 127.209 23.76 129.15 23.76C130.165 23.76 131.091 24.024 131.93 24.552C132.812 25.08 133.253 26.158 133.253 27.786C133.253 29.458 132.746 31.042 131.731 32.538C130.76 33.99 129.459 35.288 127.827 36.432C126.238 37.576 124.474 38.522 122.533 39.27C120.635 39.974 118.738 40.414 116.841 40.59C116.753 41.03 116.687 41.448 116.643 41.844C116.599 42.24 116.577 42.614 116.577 42.966C116.577 43.626 116.643 44.286 116.775 44.946C116.952 45.606 117.238 46.222 117.635 46.794C118.033 47.322 118.562 47.74 119.224 48.048C119.93 48.356 120.79 48.51 121.805 48.51C123.702 48.51 125.577 47.982 127.43 46.926C129.283 45.826 131.003 44.396 132.591 42.636C134.179 40.876 135.525 38.94 136.628 36.828L137.422 37.422C136.231 40.062 134.709 42.35 132.856 44.286C131.047 46.222 129.062 47.718 126.9 48.774C124.783 49.874 122.621 50.424 120.415 50.424ZM117.172 39.336C118.363 38.94 119.709 38.368 121.209 37.62C122.709 36.828 124.143 35.904 125.51 34.848C126.922 33.792 128.069 32.626 128.952 31.35C129.878 30.074 130.341 28.732 130.341 27.324C130.341 26.84 130.253 26.466 130.077 26.202C129.9 25.938 129.525 25.806 128.952 25.806C127.893 25.806 126.768 26.224 125.577 27.06C124.385 27.852 123.238 28.908 122.135 30.228C121.032 31.548 120.04 33 119.158 34.584C118.275 36.168 117.613 37.752 117.172 39.336ZM148.871 50.886C146.798 50.886 145.144 50.424 143.907 49.5C142.716 48.62 141.878 47.52 141.393 46.2C140.863 44.88 140.599 43.56 140.599 42.24C140.599 40.92 140.776 39.908 141.128 39.204C141.481 38.5 141.901 37.972 142.385 37.62C142.915 37.268 143.4 37.004 143.841 36.828C144.327 36.652 144.658 36.476 144.834 36.3C146.157 34.848 147.371 33.33 148.474 31.746C149.577 30.162 150.548 28.49 151.385 26.73V25.938C151.385 24.31 151.65 23.166 152.179 22.506C152.754 21.802 153.349 21.45 153.966 21.45C154.32 21.45 154.584 21.538 154.76 21.714C154.938 21.89 155.025 22.088 155.025 22.308C155.025 22.528 154.959 22.88 154.827 23.364C154.694 23.848 154.628 24.464 154.628 25.212C154.628 26.664 154.915 28.248 155.488 29.964C156.063 31.636 156.636 33.418 157.209 35.31C157.783 37.158 158.069 39.094 158.069 41.118C158.069 41.69 158.025 42.262 157.937 42.834C157.893 43.362 157.804 43.868 157.672 44.352C159.217 44.088 160.673 43.406 162.04 42.306C163.408 41.162 164.732 39.358 166.01 36.894L166.606 37.554C165.768 39.974 164.511 41.822 162.834 43.098C161.158 44.33 159.327 45.1 157.341 45.408C156.636 47.3 155.511 48.686 153.966 49.566C152.467 50.446 150.769 50.886 148.871 50.886ZM149.003 48.576C149.532 48.576 150.239 48.4 151.121 48.048C152.003 47.696 152.688 46.794 153.172 45.342C151.319 44.99 149.665 44.264 148.209 43.164C146.798 42.064 145.739 40.964 145.032 39.864C144.062 39.908 143.577 40.6781 143.577 42.174C143.577 43.758 144.04 45.232 144.966 46.596C145.938 47.916 147.282 48.576 149.003 48.576ZM153.503 44.286C153.592 43.846 153.658 43.384 153.702 42.9C153.747 42.416 153.768 41.844 153.768 41.184C153.768 39.116 153.503 37.07 152.974 35.046C152.489 32.978 152.07 31.042 151.716 29.238C150.702 30.91 149.621 32.516 148.474 34.056C147.371 35.552 146.312 36.806 145.297 37.818C145.959 39.226 146.974 40.546 148.341 41.778C149.753 43.01 151.474 43.846 153.503 44.286ZM176.978 50.556C175.081 50.556 173.625 50.006 172.611 48.906C171.596 47.806 171.089 46.178 171.089 44.022C171.089 42.086 171.441 39.71 172.148 36.894C172.897 34.034 173.823 31.108 174.927 28.116C174.485 28.028 174.067 27.962 173.67 27.918C173.273 27.83 172.897 27.72 172.545 27.588V26.4C172.897 26.444 173.316 26.488 173.802 26.532C174.286 26.576 174.838 26.62 175.456 26.664C176.383 24.288 177.376 22 178.434 19.8C179.493 17.556 180.529 15.576 181.545 13.86C182.603 12.1 183.596 10.714 184.523 9.702C185.493 8.646 186.309 8.118 186.971 8.118C187.323 8.118 187.633 8.25 187.898 8.514C188.206 8.73401 188.361 9.086 188.361 9.57C188.361 10.318 187.898 11.55 186.971 13.266C186.045 14.938 184.897 16.94 183.53 19.272C182.161 21.604 180.838 24.134 179.559 26.862C179.956 26.862 180.353 26.862 180.751 26.862C181.191 26.862 181.611 26.862 182.008 26.862C183.464 26.862 184.986 26.84 186.574 26.796C188.206 26.752 189.838 26.642 191.471 26.466V27.654C189.044 27.918 186.86 28.116 184.92 28.248C183.022 28.38 181.324 28.446 179.824 28.446C179.647 28.446 179.471 28.446 179.295 28.446C179.162 28.446 179.007 28.446 178.831 28.446C177.816 30.778 176.956 33.176 176.251 35.64C175.544 38.104 175.192 40.502 175.192 42.834C175.192 44.726 175.478 46.09 176.052 46.926C176.625 47.718 177.574 48.114 178.898 48.114C181.191 48.114 183.441 47.102 185.648 45.078C187.853 43.054 189.794 40.304 191.471 36.828L192.331 37.488C191.273 39.952 189.927 42.174 188.295 44.154C186.706 46.134 184.941 47.696 183.001 48.84C181.059 49.984 179.051 50.556 176.978 50.556ZM199.688 66C198.584 66 197.614 65.692 196.776 65.076C195.937 64.504 195.518 63.646 195.518 62.502C195.518 61.094 195.87 59.84 196.577 58.74C197.283 57.64 198.232 56.628 199.423 55.704C200.614 54.78 201.981 53.9 203.526 53.064C205.069 52.228 206.68 51.392 208.357 50.556C208.973 48.928 209.592 47.124 210.21 45.144C210.871 43.12 211.488 40.898 212.063 38.478C210.65 40.766 209.128 42.746 207.496 44.418C205.908 46.046 204.209 46.86 202.401 46.86C201.562 46.86 200.724 46.684 199.886 46.332C199.092 45.936 198.43 45.342 197.901 44.55C197.371 43.758 197.107 42.746 197.107 41.514C197.107 40.282 197.305 38.852 197.702 37.224C198.143 35.5961 198.672 34.012 199.29 32.472C199.907 30.932 200.548 29.656 201.21 28.644C201.871 27.632 202.444 27.126 202.93 27.126C203.106 27.126 203.415 27.192 203.857 27.324C204.341 27.456 204.783 27.654 205.18 27.918C205.621 28.138 205.842 28.38 205.842 28.644C205.445 29.216 205.003 30.03 204.518 31.086C204.033 32.142 203.547 33.33 203.063 34.65C202.621 35.926 202.246 37.18 201.938 38.412C201.628 39.644 201.474 40.7 201.474 41.58C201.474 42.372 201.65 43.01 202.004 43.494C202.356 43.978 202.974 44.22 203.857 44.22C204.694 44.22 205.621 43.824 206.636 43.032C207.695 42.196 208.731 41.14 209.746 39.864C210.805 38.588 211.775 37.224 212.658 35.772C212.791 35.288 212.9 34.804 212.989 34.32C213.121 33.792 213.231 33.264 213.32 32.736C213.452 32.12 213.761 31.416 214.246 30.624C214.776 29.788 215.591 29.37 216.695 29.37C216.915 29.37 217.136 29.392 217.357 29.436C217.576 29.436 217.82 29.48 218.085 29.568C218.085 30.272 217.864 31.592 217.423 33.528C217.026 35.42 216.43 37.642 215.636 40.194C214.886 42.746 213.982 45.364 212.923 48.048C214.996 47.256 217.026 45.958 219.011 44.154C220.996 42.306 222.606 39.864 223.842 36.828L224.702 37.488C224.04 39.6 223.025 41.448 221.658 43.032C220.335 44.572 218.834 45.914 217.158 47.058C215.481 48.158 213.827 49.082 212.195 49.83C211.047 52.646 209.79 55.286 208.423 57.75C207.099 60.214 205.687 62.194 204.188 63.69C202.732 65.23 201.231 66 199.688 66ZM199.357 63.888C200.018 63.888 201.121 63.008 202.666 61.248C204.254 59.532 205.929 56.496 207.695 52.14C205.886 53.108 204.209 54.054 202.666 54.978C201.121 55.946 199.886 56.98 198.96 58.08C198.033 59.18 197.57 60.456 197.57 61.908C197.57 62.26 197.702 62.678 197.967 63.162C198.232 63.646 198.695 63.888 199.357 63.888Z" fill="black"/>
</g>
<defs>
<clipPath id="clip0_312_4854">
<rect width="225" height="66" fill="white"/>
</clipPath>
</defs>
</svg>
